<svg width="18" height="17" viewBox="0 0 18 17" fill="none" xmlns="http://www.w3.org/2000/svg">
<path fill-rule="evenodd" clip-rule="evenodd" d="M11.1667 6.04167L15.35 6.35833L12.8667 7.4C11.1417 8.25 8.11666 9.84167 6.63332 10.8167L6.02499 8.08333L5.14999 8.075L4.66666 9.86667L4.44166 9.675L4.28332 9.54167L0.666656 6.48333L6.64166 6.04167L8.89999 0.5L11.1667 6.04167Z" fill="#18A97D"/>
<path fill-rule="evenodd" clip-rule="evenodd" d="M13.8917 16.0168L12.7083 12.8335L13.075 12.5585L10.6667 11.5918L10.8583 14.1751L11.225 13.9085L13.8917 16.0168Z" fill="#18A97D"/>
<path fill-rule="evenodd" clip-rule="evenodd" d="M3.84998 16.0088C4.42498 13.6588 4.99998 11.3088 5.57498 8.95046L6.16664 11.9338C9.27498 9.75046 13.7583 7.48379 17.3333 6.38379C11.9833 9.42546 7.41664 12.7255 3.84998 16.0088Z" fill="#18A97D"/>
</svg>
