<svg width="18" height="17" viewBox="0 0 18 17" fill="none" xmlns="http://www.w3.org/2000/svg">
<path fill-rule="evenodd" clip-rule="evenodd" d="M13.9 16.0168L12.7083 12.8335L13.075 12.5585L10.6667 11.5918L10.8583 14.1835L11.225 13.9085L13.9 16.0168Z" fill="#18A97D"/>
<path fill-rule="evenodd" clip-rule="evenodd" d="M13.9 16.0168L12.7083 12.8335L13.075 12.5585L10.6667 11.5918L10.8583 14.1835L11.225 13.9085L13.9 16.0168Z" fill="#D6D6D6"/>
<path d="M15.35 6.35L12.8667 7.39167C12.675 7.49167 12.45 7.6 12.225 7.70833C12.1833 7.725 12.15 7.75 12.1167 7.76667C11.8917 7.875 11.6583 8 11.4 8.13333C11.375 8.15 11.35 8.15833 11.325 8.175C11.0667 8.30833 10.8 8.45 10.5333 8.59167C10.2667 8.725 10.0083 8.875 9.74166 9.01667C9.69166 9.04167 9.64166 9.06667 9.59166 9.09167C9.36666 9.21667 9.13332 9.34167 8.89999 9.46667C8.02499 9.95833 7.20832 10.4333 6.62499 10.8167L6.03332 8.08333L5.14999 8.075L4.66666 9.86667L4.44166 9.675L4.28332 9.54167L0.666656 6.48333L6.63332 6.04167L8.89999 0.5L11.1667 6.04167L15.35 6.35Z" fill="#D6D6D6"/>
<path d="M17.3333 6.375C16.6083 6.79167 15.9 7.20833 15.2083 7.625C14.9833 7.75833 14.7667 7.90833 14.5417 8.04167C14.0833 8.325 13.625 8.61667 13.175 8.9C12.9167 9.06667 12.6667 9.23333 12.4167 9.4C12.0167 9.66667 11.6167 9.93333 11.2167 10.2C10.9667 10.375 10.7167 10.55 10.4667 10.725C10.0833 10.9917 9.70834 11.2583 9.34167 11.5333C9.26667 11.5833 9.2 11.6417 9.125 11.6917C7.19167 13.125 5.425 14.5667 3.85834 16.0083C4.44167 13.65 5.00834 11.3 5.59167 8.95L6.18334 11.9333C7.00834 11.35 7.93334 10.7667 8.90834 10.1917C9.28334 9.975 9.66667 9.75833 10.0583 9.55C10.1583 9.5 10.25 9.45 10.3583 9.38333C10.6917 9.20833 11.0333 9.025 11.375 8.85833C11.5083 8.79167 11.6417 8.725 11.775 8.65833C12.15 8.475 12.5167 8.3 12.8917 8.125C12.9667 8.09167 13.0333 8.05833 13.1 8.025C13.5417 7.825 13.975 7.63333 14.4083 7.45C14.525 7.40833 14.6417 7.35833 14.7583 7.30833C15.0917 7.175 15.4167 7.05 15.7417 6.925C15.8583 6.88333 15.9833 6.83333 16.1083 6.79167C16.5167 6.65 16.9333 6.5 17.3333 6.375Z" fill="#D6D6D6"/>
<path d="M4.28332 9.54167L4.44166 9.675L4.66666 9.86667L5.14999 8.075L6.02499 8.08333L6.62499 10.8167C7.34999 10.3333 8.89999 9.46667 8.89999 9.46667V0.5L6.64166 6.04167L0.666656 6.48333L4.28332 9.54167Z" fill="#18A97D"/>
<path d="M8.89998 11.8585V10.2085C7.92498 10.7751 6.99164 11.3668 6.16664 11.9501L5.58331 8.9668C5.00831 11.3168 4.43331 13.6668 3.84998 16.0251C5.47498 14.5251 8.89998 11.8585 8.89998 11.8585Z" fill="#18A97D"/>
</svg>
