<svg width="14" height="13" viewBox="0 0 14 13" fill="none" xmlns="http://www.w3.org/2000/svg">
<path fill-rule="evenodd" clip-rule="evenodd" d="M8.73337 4.43333L12.08 4.68667L10.0934 5.52C8.71337 6.2 6.29337 7.47333 5.10671 8.25333L4.62004 6.06667L3.92004 6.06L3.53337 7.49333L3.35337 7.34L3.22671 7.23333L0.333374 4.78667L5.11337 4.43333L6.92004 0L8.73337 4.43333Z" fill="#F5842D"/>
<path fill-rule="evenodd" clip-rule="evenodd" d="M10.9134 12.413L9.96671 9.86638L10.26 9.64638L8.33337 8.87305L8.48671 10.9397L8.78004 10.7264L10.9134 12.413Z" fill="#F5842D"/>
<path fill-rule="evenodd" clip-rule="evenodd" d="M2.88 12.407C3.34 10.527 3.8 8.64703 4.26 6.76037L4.73334 9.14703C7.22001 7.40036 10.8067 5.58703 13.6667 4.70703C9.38667 7.14036 5.73334 9.78037 2.88 12.407Z" fill="#F5842D"/>
</svg>
