<svg width="16" height="16" viewBox="0 0 16 16" fill="none" xmlns="http://www.w3.org/2000/svg">
<path fill-rule="evenodd" clip-rule="evenodd" d="M9.73337 6.43333L13.08 6.68667L11.0934 7.52C9.71337 8.2 7.29337 9.47333 6.10671 10.2533L5.62004 8.06667L4.92004 8.06L4.53337 9.49333L4.35337 9.34L4.22671 9.23333L1.33337 6.78667L6.11337 6.43333L7.92004 2L9.73337 6.43333Z" fill="#EF3F28"/>
<path fill-rule="evenodd" clip-rule="evenodd" d="M11.9134 14.413L10.9667 11.8664L11.26 11.6464L9.33337 10.873L9.48671 12.9397L9.78004 12.7264L11.9134 14.413Z" fill="#EF3F28"/>
<path fill-rule="evenodd" clip-rule="evenodd" d="M3.88 14.407C4.34 12.527 4.8 10.647 5.26 8.76037L5.73334 11.147C8.22001 9.40036 11.8067 7.58703 14.6667 6.70703C10.3867 9.14036 6.73334 11.7804 3.88 14.407Z" fill="#EF3F28"/>
</svg>
