<svg width="14" height="13" viewBox="0 0 14 13" fill="none" xmlns="http://www.w3.org/2000/svg">
<path fill-rule="evenodd" clip-rule="evenodd" d="M8.73331 4.43333L12.08 4.68667L10.0933 5.52C8.71331 6.2 6.29331 7.47333 5.10665 8.25333L4.61998 6.06667L3.91998 6.06L3.53331 7.49333L3.35331 7.34L3.22665 7.23333L0.333313 4.78667L5.11331 4.43333L6.91998 0L8.73331 4.43333Z" fill="#FCCE08"/>
<path fill-rule="evenodd" clip-rule="evenodd" d="M10.9133 12.413L9.96665 9.86638L10.26 9.64638L8.33331 8.87305L8.48665 10.9397L8.77998 10.7264L10.9133 12.413Z" fill="#FCCE08"/>
<path fill-rule="evenodd" clip-rule="evenodd" d="M2.88 12.407C3.34 10.527 3.8 8.64703 4.26 6.76037L4.73334 9.14703C7.22001 7.40036 10.8067 5.58703 13.6667 4.70703C9.38667 7.14036 5.73334 9.78037 2.88 12.407Z" fill="#FCCE08"/>
</svg>
