<svg width="20" height="19" viewBox="0 0 20 19" fill="none" xmlns="http://www.w3.org/2000/svg">
<path fill-rule="evenodd" clip-rule="evenodd" d="M12.6 6.65L17.62 7.03L14.64 8.28C12.57 9.3 8.94 11.21 7.16 12.38L6.43 9.1L5.38 9.09L4.8 11.24L4.53 11.01L4.34 10.85L0 7.18L7.17 6.65L9.88 0L12.6 6.65Z" fill="#D6D6D6"/>
<path fill-rule="evenodd" clip-rule="evenodd" d="M15.87 18.6196L14.45 14.7996L14.89 14.4696L12 13.3096L12.23 16.4096L12.67 16.0896L15.87 18.6196Z" fill="#D6D6D6"/>
<path fill-rule="evenodd" clip-rule="evenodd" d="M3.82007 18.6096C4.51007 15.7896 5.20007 12.9696 5.89007 10.1396L6.60007 13.7196C10.3301 11.0996 15.7101 8.37957 20.0001 7.05957C13.5801 10.7096 8.10007 14.6696 3.82007 18.6096Z" fill="#D6D6D6"/>
</svg>
