<svg width="24" height="27" viewBox="0 0 24 27" fill="none" xmlns="http://www.w3.org/2000/svg">
<path d="M21.3898 12.8224L11.4149 22.7973C9.44444 24.7678 6.24832 25.0789 4.09871 23.3064C1.62855 21.2699 1.50599 17.6213 3.71216 15.4151L15.3653 3.76197C16.6004 2.52689 18.6085 2.29119 19.9568 3.39428C21.5124 4.66707 21.5972 6.95809 20.2113 8.34402L10.3118 18.2435C9.79328 18.7621 8.94475 18.7621 8.42621 18.2435C7.90766 17.725 7.90766 16.8764 8.42621 16.3579L16.6758 8.10832C17.0623 7.72177 17.0623 7.08066 16.6758 6.69411C16.2892 6.30756 15.6481 6.30756 15.2616 6.69411L7.14399 14.8117C5.90891 16.0468 5.67321 18.055 6.77629 19.4032C8.04908 20.9588 10.3401 21.0437 11.726 19.6577L21.4653 9.91851C23.4357 7.94804 23.7469 4.75192 21.9744 2.60232C19.9473 0.141586 16.2892 0.00959276 14.0831 2.21577L2.51479 13.784C-0.191067 16.4899 -0.634187 20.8928 1.80769 23.8438C4.62669 27.2285 9.633 27.4076 12.6688 24.3718L22.804 14.2366C23.1906 13.85 23.1906 13.2089 22.804 12.8224C22.4175 12.4358 21.7764 12.4358 21.3898 12.8224Z" fill="#757575"/>
</svg>
