<svg width="16" height="16" viewBox="0 0 16 16" fill="none" xmlns="http://www.w3.org/2000/svg">
<path d="M8.74662 1.37299L5.05329 5.06632C4.80663 5.31299 4.66663 5.65299 4.66663 6.00632V12.6663C4.66663 13.3997 5.26663 13.9997 5.99996 13.9997H12C12.5333 13.9997 13.0133 13.6797 13.2266 13.193L15.4 8.11965C15.96 6.79965 14.9933 5.33299 13.56 5.33299H9.79329L10.4266 2.27965C10.4933 1.94632 10.3933 1.60632 10.1533 1.36632C9.75996 0.979654 9.13329 0.979654 8.74662 1.37299ZM1.99996 13.9997C2.73329 13.9997 3.33329 13.3997 3.33329 12.6663V7.33299C3.33329 6.59965 2.73329 5.99965 1.99996 5.99965C1.26663 5.99965 0.666626 6.59965 0.666626 7.33299V12.6663C0.666626 13.3997 1.26663 13.9997 1.99996 13.9997Z" fill="#18A87C"/>
</svg>
