<svg width="24" height="24" viewBox="0 0 24 24" fill="none" xmlns="http://www.w3.org/2000/svg">
<path fill-rule="evenodd" clip-rule="evenodd" d="M14.6 9.65L19.62 10.03L16.64 11.28C14.57 12.3 10.94 14.21 9.16 15.38L8.43 12.1L7.38 12.09L6.8 14.24L6.53 14.01L6.34 13.85L2 10.18L9.17 9.65L11.88 3L14.6 9.65Z" fill="#18A87C"/>
<path fill-rule="evenodd" clip-rule="evenodd" d="M17.87 21.62L16.45 17.8L16.89 17.47L14 16.31L14.23 19.41L14.67 19.09L17.87 21.62Z" fill="#18A87C"/>
<path fill-rule="evenodd" clip-rule="evenodd" d="M5.81982 21.61C6.50982 18.79 7.19982 15.97 7.88982 13.14L8.59982 16.72C12.3298 14.1 17.7098 11.38 21.9998 10.06C15.5798 13.71 10.0998 17.67 5.81982 21.61Z" fill="#18A87C"/>
</svg>
